<mxfile host="app.diagrams.net" modified="2022-04-25T08:22:23.390Z" agent="5.0 (Windows NT 10.0; Win64; x64) AppleWebKit/537.36 (KHTML, like Gecko) Chrome/100.0.4896.127 Safari/537.36" etag="4KDqiaj_ArGMLWRL_u6Q" version="17.4.6" type="github">
  <diagram id="UeQkM43qo5BGar94Qf9i" name="Page-1">
    <mxGraphModel dx="1185" dy="635" grid="1" gridSize="10" guides="1" tooltips="1" connect="1" arrows="1" fold="1" page="1" pageScale="1" pageWidth="2339" pageHeight="3300" math="0" shadow="0">
      <root>
        <mxCell id="0" />
        <mxCell id="1" parent="0" />
        <mxCell id="iAKwhCIjb9DUNFZFx7bt-4" style="edgeStyle=orthogonalEdgeStyle;rounded=0;orthogonalLoop=1;jettySize=auto;html=1;exitX=0.5;exitY=1;exitDx=0;exitDy=0;entryX=0.5;entryY=0;entryDx=0;entryDy=0;fontSize=18;" edge="1" parent="1" source="iAKwhCIjb9DUNFZFx7bt-1" target="iAKwhCIjb9DUNFZFx7bt-2">
          <mxGeometry relative="1" as="geometry" />
        </mxCell>
        <mxCell id="iAKwhCIjb9DUNFZFx7bt-1" value="&lt;font size=&quot;1&quot;&gt;&lt;b style=&quot;font-size: 16px&quot;&gt;开始&lt;/b&gt;&lt;/font&gt;" style="rounded=1;whiteSpace=wrap;html=1;fillColor=#fff2cc;strokeColor=#d6b656;shadow=0;sketch=1;" vertex="1" parent="1">
          <mxGeometry x="221" y="100" width="90" height="50" as="geometry" />
        </mxCell>
        <mxCell id="iAKwhCIjb9DUNFZFx7bt-5" value="" style="edgeStyle=orthogonalEdgeStyle;rounded=0;orthogonalLoop=1;jettySize=auto;html=1;fontSize=18;" edge="1" parent="1" source="iAKwhCIjb9DUNFZFx7bt-2" target="iAKwhCIjb9DUNFZFx7bt-3">
          <mxGeometry relative="1" as="geometry" />
        </mxCell>
        <mxCell id="iAKwhCIjb9DUNFZFx7bt-2" value="&lt;font size=&quot;1&quot;&gt;&lt;b style=&quot;font-size: 16px&quot;&gt;提交手机号&lt;/b&gt;&lt;/font&gt;" style="rounded=1;whiteSpace=wrap;html=1;fillColor=#dae8fc;strokeColor=#6c8ebf;shadow=0;sketch=1;" vertex="1" parent="1">
          <mxGeometry x="216" y="200" width="100" height="50" as="geometry" />
        </mxCell>
        <mxCell id="iAKwhCIjb9DUNFZFx7bt-6" style="edgeStyle=orthogonalEdgeStyle;rounded=0;orthogonalLoop=1;jettySize=auto;html=1;entryX=1;entryY=0.5;entryDx=0;entryDy=0;fontSize=18;" edge="1" parent="1" source="iAKwhCIjb9DUNFZFx7bt-3" target="iAKwhCIjb9DUNFZFx7bt-2">
          <mxGeometry relative="1" as="geometry">
            <Array as="points">
              <mxPoint x="381" y="330" />
              <mxPoint x="381" y="225" />
            </Array>
          </mxGeometry>
        </mxCell>
        <mxCell id="iAKwhCIjb9DUNFZFx7bt-10" value="" style="edgeStyle=orthogonalEdgeStyle;rounded=0;orthogonalLoop=1;jettySize=auto;html=1;fontSize=10;" edge="1" parent="1" source="iAKwhCIjb9DUNFZFx7bt-3" target="iAKwhCIjb9DUNFZFx7bt-8">
          <mxGeometry relative="1" as="geometry" />
        </mxCell>
        <mxCell id="iAKwhCIjb9DUNFZFx7bt-3" value="&lt;b&gt;&lt;font style=&quot;font-size: 16px&quot;&gt;校验手机号&lt;/font&gt;&lt;/b&gt;" style="rhombus;whiteSpace=wrap;html=1;shadow=0;sketch=1;fontSize=18;fillColor=#f8cecc;strokeColor=#b85450;" vertex="1" parent="1">
          <mxGeometry x="201" y="290" width="130" height="80" as="geometry" />
        </mxCell>
        <mxCell id="iAKwhCIjb9DUNFZFx7bt-7" value="&lt;font style=&quot;font-size: 10px&quot;&gt;不符合，手机号为空&lt;br&gt;或已 被注册&lt;/font&gt;" style="text;html=1;align=center;verticalAlign=middle;resizable=0;points=[];autosize=1;strokeColor=none;fillColor=none;fontSize=18;" vertex="1" parent="1">
          <mxGeometry x="327" y="260" width="120" height="50" as="geometry" />
        </mxCell>
        <mxCell id="iAKwhCIjb9DUNFZFx7bt-11" style="edgeStyle=orthogonalEdgeStyle;rounded=0;orthogonalLoop=1;jettySize=auto;html=1;entryX=0;entryY=0.5;entryDx=0;entryDy=0;fontSize=10;" edge="1" parent="1" source="iAKwhCIjb9DUNFZFx7bt-8" target="iAKwhCIjb9DUNFZFx7bt-2">
          <mxGeometry relative="1" as="geometry">
            <Array as="points">
              <mxPoint x="141" y="435" />
              <mxPoint x="141" y="225" />
            </Array>
          </mxGeometry>
        </mxCell>
        <mxCell id="iAKwhCIjb9DUNFZFx7bt-17" value="" style="edgeStyle=orthogonalEdgeStyle;rounded=0;orthogonalLoop=1;jettySize=auto;html=1;fontSize=10;" edge="1" parent="1" source="iAKwhCIjb9DUNFZFx7bt-8" target="iAKwhCIjb9DUNFZFx7bt-16">
          <mxGeometry relative="1" as="geometry" />
        </mxCell>
        <mxCell id="iAKwhCIjb9DUNFZFx7bt-8" value="&lt;font style=&quot;font-size: 16px&quot;&gt;&lt;b&gt;对密码&lt;br&gt;RSA解密&lt;/b&gt;&lt;/font&gt;" style="rounded=1;whiteSpace=wrap;html=1;fillColor=#dae8fc;strokeColor=#6c8ebf;shadow=0;sketch=1;" vertex="1" parent="1">
          <mxGeometry x="216" y="410" width="100" height="50" as="geometry" />
        </mxCell>
        <mxCell id="iAKwhCIjb9DUNFZFx7bt-12" value="解密失败" style="text;html=1;align=center;verticalAlign=middle;resizable=0;points=[];autosize=1;strokeColor=none;fillColor=none;fontSize=10;" vertex="1" parent="1">
          <mxGeometry x="110" y="330" width="60" height="20" as="geometry" />
        </mxCell>
        <mxCell id="iAKwhCIjb9DUNFZFx7bt-15" value="手机号&lt;br&gt;符合注册要求" style="text;html=1;align=center;verticalAlign=middle;resizable=0;points=[];autosize=1;strokeColor=none;fillColor=none;fontSize=10;" vertex="1" parent="1">
          <mxGeometry x="261" y="370" width="90" height="30" as="geometry" />
        </mxCell>
        <mxCell id="iAKwhCIjb9DUNFZFx7bt-19" value="" style="edgeStyle=orthogonalEdgeStyle;rounded=0;orthogonalLoop=1;jettySize=auto;html=1;fontSize=10;" edge="1" parent="1" source="iAKwhCIjb9DUNFZFx7bt-16" target="iAKwhCIjb9DUNFZFx7bt-18">
          <mxGeometry relative="1" as="geometry" />
        </mxCell>
        <mxCell id="iAKwhCIjb9DUNFZFx7bt-16" value="&lt;font style=&quot;font-size: 16px&quot;&gt;&lt;b&gt;对密码&lt;br&gt;MD5加密&lt;/b&gt;&lt;/font&gt;" style="rounded=1;whiteSpace=wrap;html=1;fillColor=#dae8fc;strokeColor=#6c8ebf;shadow=0;sketch=1;" vertex="1" parent="1">
          <mxGeometry x="216" y="500" width="100" height="50" as="geometry" />
        </mxCell>
        <mxCell id="iAKwhCIjb9DUNFZFx7bt-21" value="" style="edgeStyle=orthogonalEdgeStyle;rounded=0;orthogonalLoop=1;jettySize=auto;html=1;fontSize=10;" edge="1" parent="1" source="iAKwhCIjb9DUNFZFx7bt-18" target="iAKwhCIjb9DUNFZFx7bt-20">
          <mxGeometry relative="1" as="geometry" />
        </mxCell>
        <mxCell id="iAKwhCIjb9DUNFZFx7bt-18" value="&lt;span style=&quot;font-size: 16px&quot;&gt;&lt;b&gt;添加&lt;br&gt;用户信息&lt;/b&gt;&lt;/span&gt;" style="rounded=1;whiteSpace=wrap;html=1;fillColor=#d0cee2;strokeColor=#56517e;shadow=0;sketch=1;" vertex="1" parent="1">
          <mxGeometry x="216" y="590" width="100" height="50" as="geometry" />
        </mxCell>
        <mxCell id="iAKwhCIjb9DUNFZFx7bt-20" value="&lt;font size=&quot;1&quot;&gt;&lt;b style=&quot;font-size: 16px&quot;&gt;结束&lt;/b&gt;&lt;/font&gt;" style="rounded=1;whiteSpace=wrap;html=1;fillColor=#fff2cc;strokeColor=#d6b656;shadow=0;sketch=1;" vertex="1" parent="1">
          <mxGeometry x="221" y="680" width="90" height="50" as="geometry" />
        </mxCell>
        <mxCell id="iAKwhCIjb9DUNFZFx7bt-22" value="&lt;b&gt;&lt;font style=&quot;font-size: 18px&quot;&gt;注册接口&lt;/font&gt;&lt;/b&gt;" style="text;html=1;align=center;verticalAlign=middle;resizable=0;points=[];autosize=1;strokeColor=none;fillColor=none;fontSize=10;" vertex="1" parent="1">
          <mxGeometry x="221" y="60" width="90" height="20" as="geometry" />
        </mxCell>
      </root>
    </mxGraphModel>
  </diagram>
</mxfile>
